<mxfile host="65bd71144e">
    <diagram id="1ptRDRseaGLQQSvB-MKn" name="Page-1">
        <mxGraphModel dx="1257" dy="840" grid="0" gridSize="10" guides="1" tooltips="1" connect="1" arrows="1" fold="1" page="1" pageScale="1" pageWidth="850" pageHeight="1100" background="#ffffff" math="0" shadow="0">
            <root>
                <mxCell id="0"/>
                <mxCell id="1" parent="0"/>
                <mxCell id="2" value="App Service" style="whiteSpace=wrap;html=1;aspect=fixed;" parent="1" vertex="1">
                    <mxGeometry x="510" y="150" width="80" height="80" as="geometry"/>
                </mxCell>
                <mxCell id="6" value="" style="shape=flexArrow;endArrow=classic;html=1;" parent="1" edge="1">
                    <mxGeometry width="50" height="50" relative="1" as="geometry">
                        <mxPoint x="160" y="420" as="sourcePoint"/>
                        <mxPoint x="500" y="230" as="targetPoint"/>
                    </mxGeometry>
                </mxCell>
                <mxCell id="7" value="User" style="shape=umlActor;verticalLabelPosition=bottom;verticalAlign=top;html=1;outlineConnect=0;" parent="1" vertex="1">
                    <mxGeometry x="90" y="380" width="30" height="60" as="geometry"/>
                </mxCell>
            </root>
        </mxGraphModel>
    </diagram>
</mxfile>